<svg width="93" height="15" viewBox="0 0 93 15" fill="none" xmlns="http://www.w3.org/2000/svg">
<path d="M27.3508 3.72424H22.9603C22.8232 3.7242 22.6916 3.77862 22.5946 3.87553L21.6046 4.86578C21.5076 4.96275 21.4531 5.09429 21.4531 5.23146V11.1724C21.4531 11.1861 21.4585 11.1993 21.4682 11.209C21.4779 11.2187 21.4911 11.2241 21.5048 11.2241H22.6944C22.7081 11.2241 22.7213 11.2187 22.731 11.209C22.7407 11.1993 22.7461 11.1861 22.7461 11.1724V8.37934C22.7461 8.31075 22.7734 8.24497 22.8219 8.19647C22.8704 8.14797 22.9362 8.12072 23.0048 8.12072H26.8323C26.846 8.12072 26.8592 8.11527 26.8689 8.10557C26.8786 8.09587 26.884 8.08272 26.884 8.069V6.87936C26.884 6.86564 26.8786 6.85249 26.8689 6.84279C26.8592 6.83309 26.846 6.82764 26.8323 6.82764H23.0048C22.9362 6.82764 22.8704 6.80039 22.8219 6.75189C22.7734 6.70339 22.7461 6.63761 22.7461 6.56902V5.27594C22.7461 5.20735 22.7734 5.14157 22.8219 5.09307C22.8704 5.04457 22.9362 5.01732 23.0048 5.01732H27.3508C27.3645 5.01732 27.3777 5.01188 27.3874 5.00218C27.3971 4.99248 27.4025 4.97932 27.4025 4.9656V3.77597C27.4025 3.76225 27.3971 3.74909 27.3874 3.73939C27.3777 3.72969 27.3645 3.72424 27.3508 3.72424Z" fill="#001E28"/>
<path d="M41.0371 4.86614L40.0471 3.8759C39.9501 3.77899 39.8185 3.72457 39.6814 3.72461H36.2315C36.0943 3.72457 35.9628 3.77899 35.8658 3.8759L34.8755 4.86614C34.7786 4.96316 34.7242 5.09469 34.7242 5.23182V11.1725C34.7242 11.1862 34.7297 11.1994 34.7394 11.2091C34.7491 11.2188 34.7622 11.2242 34.776 11.2242H35.9656C35.9793 11.2242 35.9925 11.2188 36.0022 11.2091C36.0119 11.1994 36.0173 11.1862 36.0173 11.1725V8.89668C36.0173 8.82809 36.0446 8.76231 36.0931 8.71381C36.1416 8.66531 36.2074 8.63806 36.2759 8.63806H39.638C39.7065 8.63806 39.7723 8.66531 39.8208 8.71381C39.8693 8.76231 39.8966 8.82809 39.8966 8.89668V11.1725C39.8966 11.1862 39.902 11.1994 39.9117 11.2091C39.9214 11.2188 39.9346 11.2242 39.9483 11.2242H41.1379C41.1513 11.2242 41.1641 11.2191 41.1737 11.2099C41.1833 11.2007 41.1891 11.1881 41.1897 11.1748V5.23415C41.1898 5.16577 41.1764 5.09804 41.1502 5.03487C41.124 4.9717 41.0856 4.91435 41.0371 4.86614ZM39.8953 7.08636C39.8953 7.15495 39.868 7.22073 39.8195 7.26923C39.771 7.31773 39.7052 7.34498 39.6367 7.34498H36.2746C36.2061 7.34498 36.1403 7.31773 36.0918 7.26923C36.0433 7.22073 36.016 7.15495 36.016 7.08636V5.27605C36.016 5.20746 36.0433 5.14168 36.0918 5.09318C36.1403 5.04468 36.2061 5.01743 36.2746 5.01743H39.6367C39.7052 5.01743 39.771 5.04468 39.8195 5.09318C39.868 5.14168 39.8953 5.20746 39.8953 5.27605V7.08636Z" fill="#001E28"/>
<path d="M33.5974 11.2241H29.9848C29.8477 11.2242 29.7162 11.1697 29.6191 11.0728L28.6289 10.0826C28.532 9.98556 28.4776 9.85403 28.4776 9.7169V3.77597C28.4776 3.76225 28.4831 3.74909 28.4928 3.73939C28.5025 3.72969 28.5156 3.72424 28.5293 3.72424H29.719C29.7327 3.72424 29.7458 3.72969 29.7555 3.73939C29.7652 3.74909 29.7707 3.76225 29.7707 3.77597V9.67242C29.7707 9.70638 29.7774 9.74001 29.7904 9.77139C29.8034 9.80276 29.8224 9.83127 29.8464 9.85529C29.8704 9.8793 29.899 9.89835 29.9303 9.91135C29.9617 9.92435 29.9953 9.93104 30.0293 9.93104H33.5982C33.6119 9.93104 33.6251 9.93648 33.6348 9.94618C33.6445 9.95588 33.6499 9.96904 33.6499 9.98276V11.1724C33.6499 11.1793 33.6486 11.186 33.6459 11.1924C33.6433 11.1987 33.6394 11.2044 33.6345 11.2092C33.6296 11.2141 33.6238 11.2179 33.6175 11.2204C33.6111 11.223 33.6043 11.2242 33.5974 11.2241Z" fill="#001E28"/>
<path d="M48.2207 7.96891L47.2307 6.97893C47.1337 6.88192 47.0022 6.82741 46.865 6.82738H43.9765C43.9079 6.82738 43.8421 6.80013 43.7936 6.75163C43.7451 6.70313 43.7179 6.63735 43.7179 6.56876V5.27568C43.7179 5.20709 43.7451 5.14131 43.7936 5.09281C43.8421 5.04431 43.9079 5.01707 43.9765 5.01707H48.0626C48.0764 5.01707 48.0895 5.01162 48.0992 5.00192C48.1089 4.99222 48.1144 4.97906 48.1144 4.96534V3.77597C48.1144 3.76225 48.1089 3.74909 48.0992 3.73939C48.0895 3.72969 48.0764 3.72424 48.0626 3.72424H43.931C43.7939 3.7242 43.6623 3.77862 43.5653 3.87553L42.5753 4.86578C42.4783 4.96275 42.4238 5.09429 42.4238 5.23146V6.61376C42.4238 6.75093 42.4783 6.88247 42.5753 6.97945L43.5653 7.96969C43.6134 8.01771 43.6704 8.05578 43.7332 8.08174C43.796 8.1077 43.8633 8.12103 43.9312 8.12098H46.8197C46.8883 8.12098 46.9541 8.14823 47.0026 8.19673C47.0511 8.24523 47.0783 8.31101 47.0783 8.3796V9.67268C47.0783 9.74127 47.0511 9.80705 47.0026 9.85555C46.9541 9.90405 46.8883 9.93129 46.8197 9.93129H42.7362C42.7225 9.93129 42.7093 9.93674 42.6996 9.94644C42.6899 9.95614 42.6845 9.9693 42.6845 9.98302V11.1727C42.6845 11.1864 42.6899 11.1995 42.6996 11.2092C42.7093 11.2189 42.7225 11.2244 42.7362 11.2244H46.865C47.0022 11.2243 47.1337 11.1698 47.2307 11.0728L48.2207 10.0828C48.3177 9.98587 48.3722 9.85433 48.3722 9.71716V8.3346C48.3722 8.19743 48.3177 8.06589 48.2207 7.96891Z" fill="#001E28"/>
<path d="M63.1038 7.96891L62.1138 6.97893C62.0168 6.88192 61.8853 6.82741 61.7481 6.82738L58.8588 6.82764C58.7903 6.82764 58.7245 6.80039 58.676 6.75189C58.6275 6.70339 58.6002 6.63761 58.6002 6.56902V5.27594C58.6002 5.20735 58.6275 5.14157 58.676 5.09307C58.7245 5.04457 58.7903 5.01732 58.8588 5.01732H62.945C62.9587 5.01732 62.9719 5.01188 62.9816 5.00218C62.9913 4.99248 62.9967 4.97932 62.9967 4.9656V3.77597C62.9967 3.76225 62.9913 3.74909 62.9816 3.73939C62.9719 3.72969 62.9587 3.72424 62.945 3.72424H58.8141C58.677 3.7242 58.5454 3.77862 58.4484 3.87553L57.4584 4.86578C57.3614 4.96275 57.3069 5.09429 57.3069 5.23146V6.61376C57.3069 6.75093 57.3614 6.88247 57.4584 6.97945L58.4484 7.96969C58.5454 8.0666 58.677 8.12102 58.8141 8.12098L61.7036 8.12072C61.7722 8.12072 61.838 8.14797 61.8865 8.19647C61.935 8.24497 61.9622 8.31075 61.9622 8.37934V9.67242C61.9622 9.70638 61.9555 9.74001 61.9426 9.77139C61.9296 9.80276 61.9105 9.83127 61.8865 9.85529C61.8625 9.8793 61.834 9.89835 61.8026 9.91135C61.7712 9.92435 61.7376 9.93103 61.7036 9.93103H57.6193C57.6056 9.93103 57.5924 9.93648 57.5827 9.94618C57.573 9.95588 57.5676 9.96904 57.5676 9.98276V11.1724C57.5676 11.1861 57.573 11.1993 57.5827 11.209C57.5924 11.2187 57.6056 11.2241 57.6193 11.2241H61.7481C61.8853 11.2241 62.0168 11.1696 62.1138 11.0726L63.1038 10.0826C63.2008 9.98561 63.2553 9.85407 63.2553 9.7169V8.3346C63.2553 8.19743 63.2008 8.06589 63.1038 7.96891Z" fill="#001E28"/>
<path d="M65.7833 5.27594C65.7833 5.20735 65.8105 5.14157 65.859 5.09307C65.9075 5.04457 65.9733 5.01732 66.0419 5.01732H69.8694C69.8832 5.01732 69.8963 5.01188 69.906 5.00218C69.9157 4.99248 69.9212 4.97932 69.9212 4.9656V3.77597C69.9212 3.76225 69.9157 3.74909 69.906 3.73939C69.8963 3.72969 69.8832 3.72424 69.8694 3.72424H65.9967C65.8595 3.7242 65.728 3.77862 65.631 3.87553L64.6407 4.86578C64.5438 4.9628 64.4894 5.09433 64.4894 5.23146V9.71587C64.4894 9.853 64.5438 9.98453 64.6407 10.0815L65.631 11.0718C65.6789 11.12 65.7359 11.1582 65.7987 11.1843C65.8614 11.2105 65.9287 11.224 65.9967 11.2241H69.8692C69.8829 11.2241 69.8961 11.2187 69.9058 11.209C69.9155 11.1993 69.9209 11.1861 69.9209 11.1724V9.98276C69.9209 9.96904 69.9155 9.95588 69.9058 9.94618C69.8961 9.93648 69.8829 9.93103 69.8692 9.93103H66.0417C66.0077 9.93103 65.9741 9.92435 65.9427 9.91135C65.9113 9.89835 65.8828 9.8793 65.8588 9.85529C65.8348 9.83127 65.8157 9.80276 65.8027 9.77139C65.7897 9.74001 65.783 9.70638 65.783 9.67242L65.7833 5.27594Z" fill="#001E28"/>
<path d="M77.4714 4.86614L76.4814 3.8759C76.3844 3.77899 76.2529 3.72457 76.1158 3.72461H72.6643C72.5271 3.72457 72.3956 3.77899 72.2986 3.8759L71.3083 4.86614C71.2113 4.96312 71.1568 5.09466 71.1568 5.23183V9.71597C71.1568 9.85314 71.2113 9.98468 71.3083 10.0817L72.2986 11.0719C72.3956 11.1688 72.5271 11.2232 72.6643 11.2232H76.1158C76.2529 11.2232 76.3844 11.1688 76.4814 11.0719L77.4714 10.0817C77.5684 9.98468 77.623 9.85314 77.623 9.71597V5.23183C77.623 5.09466 77.5684 4.96312 77.4714 4.86614ZM76.3299 9.67253C76.3299 9.70649 76.3232 9.74012 76.3102 9.77149C76.2972 9.80287 76.2782 9.83138 76.2542 9.8554C76.2301 9.87941 76.2016 9.89846 76.1702 9.91146C76.1389 9.92445 76.1052 9.93114 76.0713 9.93114H72.7093C72.6753 9.93114 72.6417 9.92445 72.6103 9.91146C72.5789 9.89846 72.5504 9.87941 72.5264 9.8554C72.5024 9.83138 72.4833 9.80287 72.4703 9.77149C72.4573 9.74012 72.4507 9.70649 72.4507 9.67253V5.27605C72.4507 5.20746 72.4779 5.14168 72.5264 5.09318C72.5749 5.04468 72.6407 5.01743 72.7093 5.01743H76.0713C76.1399 5.01743 76.2057 5.04468 76.2542 5.09318C76.3027 5.14168 76.3299 5.20746 76.3299 5.27605V9.67253Z" fill="#001E28"/>
<path d="M56.0199 3.72424H54.8303C54.8166 3.72424 54.8034 3.72969 54.7937 3.73939C54.784 3.74909 54.7786 3.76225 54.7786 3.77597V6.56902C54.7786 6.63761 54.7513 6.70339 54.7028 6.75189C54.6543 6.80039 54.5886 6.82764 54.52 6.82764H51.158C51.0894 6.82764 51.0236 6.80039 50.9751 6.75189C50.9266 6.70339 50.8993 6.63761 50.8993 6.56902V3.77597C50.8993 3.76225 50.8939 3.74909 50.8842 3.73939C50.8745 3.72969 50.8613 3.72424 50.8476 3.72424H49.658C49.6443 3.72424 49.6311 3.72969 49.6214 3.73939C49.6117 3.74909 49.6063 3.76225 49.6063 3.77597V11.1724C49.6063 11.1861 49.6117 11.1993 49.6214 11.209C49.6311 11.2187 49.6443 11.2241 49.658 11.2241H50.8476C50.8613 11.2241 50.8745 11.2187 50.8842 11.209C50.8939 11.1993 50.8993 11.1861 50.8993 11.1724V8.37934C50.8993 8.31075 50.9266 8.24497 50.9751 8.19647C51.0236 8.14797 51.0894 8.12072 51.158 8.12072H54.52C54.5886 8.12072 54.6543 8.14797 54.7028 8.19647C54.7513 8.24497 54.7786 8.31075 54.7786 8.37934V11.1724C54.7786 11.1861 54.784 11.1993 54.7937 11.209C54.8034 11.2187 54.8166 11.2241 54.8303 11.2241H56.0199C56.0337 11.2241 56.0468 11.2187 56.0565 11.209C56.0662 11.1993 56.0717 11.1861 56.0717 11.1724V3.77597C56.0717 3.76225 56.0662 3.74909 56.0565 3.73939C56.0468 3.72969 56.0337 3.72424 56.0199 3.72424Z" fill="#001E28"/>
<path d="M85.3241 5.23182C85.3241 5.09469 85.2697 4.96316 85.1728 4.86614L84.2032 3.8759C84.1062 3.77899 83.9747 3.72457 83.8376 3.72461H78.9099C78.8962 3.72461 78.883 3.73006 78.8733 3.73976C78.8636 3.74946 78.8582 3.76261 78.8582 3.77633V11.1725C78.8582 11.1862 78.8636 11.1994 78.8733 11.2091C78.883 11.2188 78.8962 11.2242 78.9099 11.2242H80.0995C80.1132 11.2242 80.1264 11.2188 80.1361 11.2091C80.1458 11.1994 80.1512 11.1862 80.1512 11.1725V8.3766C80.1518 8.31228 80.1764 8.25048 80.2201 8.20329C80.2638 8.15609 80.3235 8.12687 80.3876 8.12134H82.0596L83.8502 11.2242H85.343L83.5523 8.12083H83.8368C83.9739 8.12087 84.1054 8.06645 84.2025 7.96954L85.1725 6.97929C85.2694 6.88228 85.3239 6.75074 85.3238 6.61361L85.3241 5.23182ZM84.031 6.56991C84.031 6.63849 84.0038 6.70428 83.9553 6.75278C83.9068 6.80128 83.841 6.82852 83.7724 6.82852H80.408C80.3399 6.82852 80.2744 6.8016 80.226 6.7536C80.1776 6.7056 80.15 6.64042 80.1494 6.57223V5.27372C80.15 5.20598 80.1772 5.14118 80.2251 5.09326C80.2729 5.04533 80.3377 5.01811 80.4055 5.01743H83.7721C83.8407 5.01743 83.9065 5.04468 83.955 5.09318C84.0035 5.14168 84.0307 5.20746 84.0307 5.27605L84.031 6.56991Z" fill="#001E28"/>
<path d="M88.1251 5.01732H92.4699C92.4836 5.01732 92.4967 5.01188 92.5064 5.00218C92.5161 4.99248 92.5216 4.97932 92.5216 4.9656V3.77597C92.5216 3.76225 92.5161 3.74909 92.5064 3.73939C92.4967 3.72969 92.4836 3.72424 92.4699 3.72424H88.0809C87.9438 3.7242 87.8122 3.77862 87.7152 3.87553L86.725 4.86578C86.6281 4.9628 86.5736 5.09433 86.5737 5.23146V9.71587C86.5736 9.853 86.6281 9.98453 86.725 10.0815L87.7152 11.0718C87.8122 11.1687 87.9438 11.2231 88.0809 11.2231H92.4691C92.4828 11.2231 92.496 11.2176 92.5057 11.2079C92.5154 11.1982 92.5208 11.1851 92.5208 11.1714V9.98276C92.5208 9.96904 92.5154 9.95588 92.5057 9.94618C92.496 9.93648 92.4828 9.93103 92.4691 9.93103H88.1243C88.0904 9.93103 88.0567 9.92435 88.0254 9.91135C87.994 9.89835 87.9655 9.8793 87.9415 9.85529C87.9174 9.83127 87.8984 9.80276 87.8854 9.77139C87.8724 9.74001 87.8657 9.70638 87.8657 9.67242V8.37934C87.8657 8.31075 87.893 8.24497 87.9415 8.19647C87.99 8.14797 88.0557 8.12072 88.1243 8.12072L91.176 8.11865C91.1897 8.11865 91.2029 8.1132 91.2126 8.1035C91.2223 8.0938 91.2277 8.08065 91.2277 8.06693V6.87729C91.2277 6.86358 91.2223 6.85042 91.2126 6.84072C91.2029 6.83102 91.1897 6.82557 91.176 6.82557L88.1243 6.82764C88.0557 6.82764 87.99 6.80039 87.9415 6.75189C87.893 6.70339 87.8657 6.63761 87.8657 6.56902V5.27594C87.8657 5.24191 87.8724 5.20822 87.8855 5.17679C87.8985 5.14537 87.9176 5.11682 87.9417 5.0928C87.9658 5.06877 87.9944 5.04974 88.0259 5.03679C88.0574 5.02384 88.0911 5.01722 88.1251 5.01732Z" fill="#001E28"/>
<path d="M3.39906 8.26403C3.3323 7.88554 3.31552 7.49993 3.34915 7.11707L0.259199 6.84656C0.144737 8.15809 0.377253 9.47666 0.933411 10.6699L3.74483 9.35927C3.58199 9.01096 3.46574 8.64271 3.39906 8.26403Z" fill="#001E28"/>
<path d="M4.36297 10.3263L1.98706 12.32C2.69242 13.1568 3.5711 13.8305 4.56236 14.2945L5.87277 11.4828C5.29177 11.2111 4.77665 10.8165 4.36297 10.3263Z" fill="#001E28"/>
<path d="M8.49433 11.8317C8.11575 11.8984 7.73004 11.9151 7.34711 11.8814L7.0766 14.9713C7.72959 15.0287 8.38729 14.9999 9.03277 14.8857C9.24975 14.8475 9.46233 14.7996 9.6713 14.744L8.86829 11.7477C8.74597 11.7805 8.62157 11.8092 8.49433 11.8317Z" fill="#001E28"/>
<path d="M6.96668 3.16908C7.48333 3.07736 8.01227 3.07937 8.5282 3.17503L9.86085 0.310596C8.74754 -0.0212571 7.57207 -0.0882978 6.42824 0.114823C3.47044 0.636452 1.22203 2.83495 0.487305 5.56051L3.48337 6.36222C3.91423 4.76423 5.23214 3.47477 6.96668 3.16908Z" fill="#001E28"/>
<path d="M10.556 10.8679L12.5502 13.2436C13.0513 12.8217 13.4953 12.3364 13.871 11.8L11.3316 10.022C11.1109 10.3364 10.8502 10.6208 10.556 10.8679Z" fill="#001E28"/>
<path d="M15.2013 6.84656L12.1111 7.11707C12.1336 7.37217 12.1336 7.62876 12.1111 7.88387L15.2018 8.15438C15.2399 7.71926 15.2397 7.28164 15.2013 6.84656Z" fill="#001E28"/>
<path d="M11.2271 0.000244141L8.34149 6.18867L20.8156 0.000244141H11.2271Z" fill="#FF0046"/>
</svg>
