<svg width="18" height="18" viewBox="0 0 18 18" fill="none" xmlns="http://www.w3.org/2000/svg">
<path d="M8.4375 0H9.5625C9.86906 0.0400773 10.1774 0.069608 10.4815 0.121638C12.1718 0.410617 13.6673 1.11689 14.9484 2.25664C16.5143 3.6502 17.4937 5.38091 17.8618 7.44911C17.9202 7.77641 17.9546 8.10758 18 8.43734V9.56231C17.9902 9.60766 17.9743 9.65231 17.9708 9.69801C17.8646 11.099 17.46 12.4099 16.7245 13.6049C15.2947 15.9276 13.2374 17.3577 10.5497 17.8622C10.2234 17.9234 9.89191 17.9547 9.5625 18H8.4375C8.21777 17.9729 7.9977 17.9494 7.77902 17.9181C5.98781 17.6615 4.40508 16.9443 3.05227 15.7427C1.48957 14.3537 0.513633 12.6275 0.140273 10.5678C0.0798047 10.2352 0.0460547 9.8977 0 9.56231V8.43734C0.039375 8.1364 0.0689062 7.83407 0.119531 7.53524C0.438047 5.66321 1.2593 4.04324 2.59277 2.69186C3.93891 1.32712 5.55891 0.470733 7.44996 0.138161C7.77727 0.0808578 8.10809 0.0453507 8.4375 0ZM8.16082 10.3755C8.10457 10.3217 8.06203 10.2827 8.02125 10.2419C7.44117 9.66251 6.86039 9.08385 6.28242 8.50272C6.06023 8.27949 5.79902 8.19547 5.49738 8.28722C4.94754 8.45456 4.79004 9.12498 5.20559 9.54474C5.97586 10.3231 6.75281 11.0947 7.5273 11.8689C7.96008 12.3016 8.35313 12.3016 8.7859 11.8689C10.2727 10.3825 11.7591 8.89612 13.2455 7.40939C13.3573 7.29759 13.4726 7.18896 13.5787 7.07189C13.7507 6.8824 13.8196 6.65811 13.7623 6.4057C13.6972 6.11918 13.5193 5.92582 13.2388 5.84426C12.9498 5.76024 12.696 5.83899 12.4836 6.05133C11.7879 6.7467 11.0921 7.44243 10.3968 8.13816C9.65602 8.87924 8.91527 9.62102 8.16117 10.3758L8.16082 10.3755Z" fill="#12CB59"/>
</svg>
