<svg width="33" height="33" viewBox="0 0 33 33" fill="none" xmlns="http://www.w3.org/2000/svg">
<rect width="33" height="33" rx="7" fill="#FF2E00"/>
<path fill-rule="evenodd" clip-rule="evenodd" d="M11.2177 22.7838C11.0783 22.6444 11 22.4553 11 22.2581C11 22.061 11.0783 21.8719 11.2177 21.7325L21.7325 11.2177C21.8727 11.0822 22.0605 11.0073 22.2555 11.009C22.4504 11.0107 22.6369 11.0889 22.7747 11.2267C22.9126 11.3646 22.9908 11.5511 22.9925 11.746C22.9942 11.941 22.9192 12.1288 22.7838 12.269L12.269 22.7838C12.1296 22.9232 11.9405 23.0015 11.7434 23.0015C11.5462 23.0015 11.3571 22.9232 11.2177 22.7838Z" fill="white" stroke="white" stroke-width="1.5"/>
<path fill-rule="evenodd" clip-rule="evenodd" d="M11.2177 11.2177C11.3571 11.0783 11.5462 11 11.7434 11C11.9405 11 12.1296 11.0783 12.269 11.2177L22.7838 21.7325C22.9192 21.8727 22.9942 22.0605 22.9925 22.2555C22.9908 22.4504 22.9126 22.6369 22.7747 22.7747C22.6369 22.9126 22.4504 22.9908 22.2555 22.9925C22.0605 22.9942 21.8727 22.9192 21.7325 22.7838L11.2177 12.269C11.0783 12.1296 11 11.9405 11 11.7434C11 11.5462 11.0783 11.3571 11.2177 11.2177Z" fill="white" stroke="white" stroke-width="1.5"/>
</svg>
